<svg width="120" height="117" viewBox="0 0 120 117" fill="none" xmlns="http://www.w3.org/2000/svg">
<path d="M97.4115 6.39314L35.304 1.67783C22.9686 0.741299 12.1021 9.72978 10.7091 22.022L3.04015 89.6971C1.44558 103.768 12.8242 115.924 26.9701 115.262L93.1144 112.163C104.85 111.614 114.285 102.308 114.996 90.5814L118.628 30.7201C119.389 18.1767 109.942 7.34447 97.4115 6.39314Z" fill="white"/>
<g clip-path="url(#clip0)">
<path d="M47.487 23H44.5854V45.487H47.487V23Z" fill="white"/>
<path d="M61.2695 23H52.9275V25.5389H61.2695V23Z" fill="white"/>
<path d="M75.4144 23H64.1709V25.5389H75.4144V23Z" fill="white"/>
<path d="M41.6839 25.5388H27.5388V28.4404H41.6839V25.5388Z" fill="white"/>
<path d="M61.2695 25.5388H55.8291V28.4404H61.2695V25.5388Z" fill="white"/>
<path d="M75.4145 25.5388H67.0725V28.4404H75.4145V25.5388Z" fill="white"/>
<path d="M92.4612 25.5388H78.3162V28.4404H92.4612V25.5388Z" fill="white"/>
<path d="M30.4404 28.4404H27.5388V39.684H30.4404V28.4404Z" fill="white"/>
<path d="M41.684 28.4404H38.7825V39.684H41.684V28.4404Z" fill="white"/>
<path d="M55.829 28.4404H52.9275V39.684H55.829V28.4404Z" fill="white"/>
<path d="M61.2693 28.4404H58.7305V31.342H61.2693V28.4404Z" fill="white"/>
<path d="M67.0724 28.4404H64.1709V31.342H67.0724V28.4404Z" fill="white"/>
<path d="M75.4145 28.4404H72.5129V45.4871H75.4145V28.4404Z" fill="white"/>
<path d="M81.2177 28.4404H78.3162V39.684H81.2177V28.4404Z" fill="white"/>
<path d="M92.4611 28.4404H89.5596V39.684H92.4611V28.4404Z" fill="white"/>
<path d="M50.0259 31.342H47.4871V34.2435H50.0259V31.342Z" fill="white"/>
<path d="M75.4145 31.342H67.0725V34.2435H75.4145V31.342Z" fill="white"/>
<path d="M55.829 34.2435H50.0259V39.6839H55.829V34.2435Z" fill="white"/>
<path d="M69.974 34.2435H64.1709V36.7824H69.974V34.2435Z" fill="white"/>
<path d="M41.684 36.7824H30.4404V39.6839H41.684V36.7824Z" fill="white"/>
<path d="M58.7306 36.7824H47.4871V39.6839H58.7306V36.7824Z" fill="white"/>
<path d="M75.4145 36.7824H67.0725V39.6839H75.4145V36.7824Z" fill="white"/>
<path d="M92.4611 36.7824H81.2175V39.6839H92.4611V36.7824Z" fill="white"/>
<path d="M52.9274 39.6839H50.0259V42.5855H52.9274V39.6839Z" fill="white"/>
<path d="M58.7307 39.6839H55.8291V45.487H58.7307V39.6839Z" fill="white"/>
<path d="M64.1711 39.6839H61.2695V42.5855H64.1711V39.6839Z" fill="white"/>
<path d="M69.9741 39.6839H67.0725V45.487H69.9741V39.6839Z" fill="white"/>
<path d="M50.0259 42.5855H25V45.4871H50.0259V42.5855Z" fill="white"/>
<path d="M58.7306 42.5855H52.9275V45.4871H58.7306V42.5855Z" fill="white"/>
<path d="M94.9999 42.5855H64.1709V45.4871H94.9999V42.5855Z" fill="white"/>
<path d="M33.3419 45.4871H27.5388V50.9275H33.3419V45.4871Z" fill="white"/>
<path d="M55.829 45.4871H52.9275V48.0259H55.829V45.4871Z" fill="white"/>
<path d="M64.1709 45.4871H58.7305V50.9275H64.1709V45.4871Z" fill="white"/>
<path d="M81.2177 45.4871H75.4146V48.0259H81.2177V45.4871Z" fill="white"/>
<path d="M86.6582 45.4871H83.7566V48.0259H86.6582V45.4871Z" fill="white"/>
<path d="M38.7823 48.0259H36.2434V50.9275H38.7823V48.0259Z" fill="white"/>
<path d="M52.9276 48.0259H41.6841V50.9275H52.9276V48.0259Z" fill="white"/>
<path d="M67.0724 48.0259H64.1709V50.9275H67.0724V48.0259Z" fill="white"/>
<path d="M78.3161 48.0259H69.9741V50.9275H78.3161V48.0259Z" fill="white"/>
<path d="M94.9999 48.0259H84.8445V50.9275H94.9999V48.0259Z" fill="white"/>
<path d="M27.5389 50.9275H25V53.829H27.5389V50.9275Z" fill="white"/>
<path d="M36.2436 50.9275H33.342V65.0725H36.2436V50.9275Z" fill="white"/>
<path d="M41.684 50.9275H38.7825V53.829H41.684V50.9275Z" fill="white"/>
<path d="M55.829 50.9275H52.9275V53.829H55.829V50.9275Z" fill="white"/>
<path d="M75.4145 50.9275H72.5129V53.829H75.4145V50.9275Z" fill="white"/>
<path d="M92.4611 50.9275H86.658V53.829H92.4611V50.9275Z" fill="white"/>
<path d="M38.7823 53.829H36.2434V56.7306H38.7823V53.829Z" fill="white"/>
<path d="M47.4872 53.829H41.6841V56.7306H47.4872V53.829Z" fill="white"/>
<path d="M52.9274 53.829H50.0259V59.2694H52.9274V53.829Z" fill="white"/>
<path d="M67.0726 53.829H55.8291V56.7306H67.0726V53.829Z" fill="white"/>
<path d="M72.513 53.829H69.9741V56.7306H72.513V53.829Z" fill="white"/>
<path d="M81.2177 53.829H75.4146V56.7306H81.2177V53.829Z" fill="white"/>
<path d="M36.2435 56.7306H30.4404V59.2694H36.2435V56.7306Z" fill="white"/>
<path d="M55.829 56.7306H52.9275V62.171H55.829V56.7306Z" fill="white"/>
<path d="M64.1711 56.7306H61.2695V62.171H64.1711V56.7306Z" fill="white"/>
<path d="M69.9741 56.7306H67.0725V59.2694H69.9741V56.7306Z" fill="white"/>
<path d="M75.4145 56.7306H72.5129V62.171H75.4145V56.7306Z" fill="white"/>
<path d="M92.4611 56.7306H81.2175V59.2694H92.4611V56.7306Z" fill="white"/>
<path d="M30.4404 59.2694H27.5388V62.171H30.4404V59.2694Z" fill="white"/>
<path d="M44.5856 59.2694H38.7825V62.171H44.5856V59.2694Z" fill="white"/>
<path d="M67.0726 59.2694H55.8291V62.171H67.0726V59.2694Z" fill="white"/>
<path d="M81.2176 59.2694H69.9741V62.171H81.2176V59.2694Z" fill="white"/>
<path d="M89.5597 59.2694H83.7566V62.171H89.5597V59.2694Z" fill="white"/>
<path d="M94.9999 59.2694H84.8445V62.171H94.9999V59.2694Z" fill="white"/>
<path d="M41.684 62.171H30.4404V65.0725H41.684V62.171Z" fill="white"/>
<path d="M50.0259 62.171H44.5854V70.513H50.0259V62.171Z" fill="white"/>
<path d="M72.513 62.171H69.9741V65.0725H72.513V62.171Z" fill="white"/>
<path d="M81.2177 62.171H78.3162V65.0725H81.2177V62.171Z" fill="white"/>
<path d="M30.4404 65.0725H27.5388V73.4145H30.4404V65.0725Z" fill="white"/>
<path d="M50.0258 65.0725H36.2434V67.9741H50.0258V65.0725Z" fill="white"/>
<path d="M69.974 65.0725H58.7305V67.9741H69.974V65.0725Z" fill="white"/>
<path d="M78.316 65.0725H72.5129V67.9741H78.316V65.0725Z" fill="white"/>
<path d="M86.6582 65.0725H83.7566V73.4145H86.6582V65.0725Z" fill="white"/>
<path d="M92.4611 65.0725H89.5596V67.9741H92.4611V65.0725Z" fill="white"/>
<path d="M36.2435 67.9741H30.4404V73.4145H36.2435V67.9741Z" fill="white"/>
<path d="M41.684 67.9741H38.7825V73.4145H41.684V67.9741Z" fill="white"/>
<path d="M61.2695 67.9741H55.8291V70.5129H61.2695V67.9741Z" fill="white"/>
<path d="M69.974 67.9741H64.1709V70.5129H69.974V67.9741Z" fill="white"/>
<path d="M94.9999 67.9741H84.8445V73.4145H94.9999V67.9741Z" fill="white"/>
<path d="M47.487 70.5129H25V73.4145H47.487V70.5129Z" fill="white"/>
<path d="M64.1711 70.5129H61.2695V73.4145H64.1711V70.5129Z" fill="white"/>
<path d="M81.2176 70.5129H72.5129V73.4145H81.2176V70.5129Z" fill="white"/>
<path d="M89.5595 70.5129H86.658V84.658H89.5595V70.5129Z" fill="white"/>
<path d="M47.487 73.4145H44.5854V93H47.487V73.4145Z" fill="white"/>
<path d="M61.2693 73.4145H58.7305V76.3161H61.2693V73.4145Z" fill="white"/>
<path d="M69.9741 73.4145H67.0725V76.3161H69.9741V73.4145Z" fill="white"/>
<path d="M75.4145 73.4145H72.5129V79.2176H75.4145V73.4145Z" fill="white"/>
<path d="M81.2177 73.4145H78.3162V79.2176H81.2177V73.4145Z" fill="white"/>
<path d="M92.4611 73.4145H89.5596V76.3161H92.4611V73.4145Z" fill="white"/>
<path d="M41.6839 76.3161H27.5388V79.2176H41.6839V76.3161Z" fill="white"/>
<path d="M58.7305 76.3161H50.0259V79.2176H58.7305V76.3161Z" fill="white"/>
<path d="M67.0724 76.3161H64.1709V79.2176H67.0724V76.3161Z" fill="white"/>
<path d="M81.2177 76.3161H75.4146V79.2176H81.2177V76.3161Z" fill="white"/>
<path d="M89.5597 76.3161H83.7566V79.2176H89.5597V76.3161Z" fill="white"/>
<path d="M94.9999 76.3161H84.8445V79.2176H94.9999V76.3161Z" fill="white"/>
<path d="M30.4404 79.2176H27.5388V90.4611H30.4404V79.2176Z" fill="white"/>
<path d="M41.684 79.2176H38.7825V90.4611H41.684V79.2176Z" fill="white"/>
<path d="M58.7307 77.0414H55.8291V93H58.7307V77.0414Z" fill="white"/>
<path d="M64.1711 79.2176H61.2695V84.658H64.1711V79.2176Z" fill="white"/>
<path d="M69.9741 81.7565H50.0259V84.658H69.9741V81.7565Z" fill="white"/>
<path d="M75.4145 81.7565H72.5129V84.658H75.4145V81.7565Z" fill="white"/>
<path d="M83.7566 81.7565H78.3162V84.658H83.7566V81.7565Z" fill="white"/>
<path d="M52.9275 84.658H47.4871V87.5596H52.9275V84.658Z" fill="white"/>
<path d="M69.9741 80.6684H67.0725V93H69.9741V80.6684Z" fill="white"/>
<path d="M78.3161 80.6684H75.4146V93H78.3161V80.6684Z" fill="white"/>
<path d="M86.6582 84.658H83.7566V90.4611H86.6582V84.658Z" fill="white"/>
<path d="M41.684 87.5596H30.4404V90.4611H41.684V87.5596Z" fill="white"/>
<path d="M50.0259 87.5596H47.4871V90.4611H50.0259V87.5596Z" fill="white"/>
<path d="M78.3161 87.5596H52.9275V90.4611H78.3161V87.5596Z" fill="white"/>
<path d="M58.7305 84.2953H50.0259V93H58.7305V84.2953Z" fill="white"/>
<path d="M83.7566 84.2953H78.3162V93H83.7566V84.2953Z" fill="white"/>
<path d="M92.4611 84.2953H86.658V93H92.4611V84.2953Z" fill="white"/>
<path d="M44.5855 23H25V25.5389H44.5855V23Z" fill="black"/>
<path d="M52.9275 23H47.4871V31.342H52.9275V23Z" fill="black"/>
<path d="M64.1711 23H61.2695V39.6839H64.1711V23Z" fill="black"/>
<path d="M95 23H75.4146V25.5389H95V23Z" fill="black"/>
<path d="M27.5389 25.5388H25V42.5855H27.5389V25.5388Z" fill="black"/>
<path d="M44.5856 25.5388H41.6841V42.5855H44.5856V25.5388Z" fill="black"/>
<path d="M55.829 25.5388H52.9275V28.4404H55.829V25.5388Z" fill="black"/>
<path d="M67.0724 25.5388H64.1709V28.4404H67.0724V25.5388Z" fill="black"/>
<path d="M78.3161 25.5388H75.4146V42.5855H78.3161V25.5388Z" fill="black"/>
<path d="M95 25.5388H92.4612V42.5855H95V25.5388Z" fill="black"/>
<path d="M38.7824 28.4404H30.4404V36.7824H38.7824V28.4404Z" fill="black"/>
<path d="M58.7307 28.4404H55.8291V36.7824H58.7307V28.4404Z" fill="black"/>
<path d="M72.5129 28.4404H67.0725V31.342H72.5129V28.4404Z" fill="black"/>
<path d="M89.5595 28.4404H81.2175V36.7824H89.5595V28.4404Z" fill="black"/>
<path d="M52.9274 31.342H50.0259V34.2435H52.9274V31.342Z" fill="black"/>
<path d="M67.0724 31.342H58.7305V34.2435H67.0724V31.342Z" fill="black"/>
<path d="M50.0259 34.2435H47.4871V36.7824H50.0259V34.2435Z" fill="black"/>
<path d="M64.1709 34.2435H58.7305V39.6839H64.1709V34.2435Z" fill="black"/>
<path d="M72.513 34.2435H69.9741V36.7824H72.513V34.2435Z" fill="black"/>
<path d="M67.0724 36.7824H64.1709V42.5855H67.0724V36.7824Z" fill="black"/>
<path d="M44.5855 39.6839H27.5388V42.5855H44.5855V39.6839Z" fill="black"/>
<path d="M50.0259 39.6839H47.4871V42.5855H50.0259V39.6839Z" fill="black"/>
<path d="M55.829 39.6839H52.9275V42.5855H55.829V39.6839Z" fill="black"/>
<path d="M61.2693 39.6839H58.7305V45.487H61.2693V39.6839Z" fill="black"/>
<path d="M72.513 39.6839H69.9741V42.5855H72.513V39.6839Z" fill="black"/>
<path d="M95.0001 39.6839H78.3162V42.5855H95.0001V39.6839Z" fill="black"/>
<path d="M52.9274 42.5855H50.0259V48.0259H52.9274V42.5855Z" fill="black"/>
<path d="M64.1711 42.5855H61.2695V45.4871H64.1711V42.5855Z" fill="black"/>
<path d="M27.5389 45.4871H25V50.9275H27.5389V45.4871Z" fill="black"/>
<path d="M52.9275 45.4871H33.342V48.0259H52.9275V45.4871Z" fill="black"/>
<path d="M58.7307 45.4871H55.8291V53.829H58.7307V45.4871Z" fill="black"/>
<path d="M75.4144 45.4871H64.1709V48.0259H75.4144V45.4871Z" fill="black"/>
<path d="M83.7564 45.4871H81.2175V56.7306H83.7564V45.4871Z" fill="black"/>
<path d="M94.9999 45.4871H86.658V48.0259H94.9999V45.4871Z" fill="black"/>
<path d="M36.2436 48.0259H33.342V50.9275H36.2436V48.0259Z" fill="black"/>
<path d="M41.684 48.0259H38.7825V50.9275H41.684V48.0259Z" fill="black"/>
<path d="M58.7306 48.0259H52.9275V50.9275H58.7306V48.0259Z" fill="black"/>
<path d="M69.9741 48.0259H67.0725V56.7306H69.9741V48.0259Z" fill="black"/>
<path d="M92.4612 48.0259H78.3162V50.9275H92.4612V48.0259Z" fill="black"/>
<path d="M33.3419 50.9275H27.5388V56.7306H33.3419V50.9275Z" fill="black"/>
<path d="M38.7823 50.9275H36.2434V53.829H38.7823V50.9275Z" fill="black"/>
<path d="M52.9276 50.9275H41.6841V53.829H52.9276V50.9275Z" fill="black"/>
<path d="M72.5128 50.9275H58.7305V53.829H72.5128V50.9275Z" fill="black"/>
<path d="M86.6581 50.9275H75.4146V53.829H86.6581V50.9275Z" fill="black"/>
<path d="M95 50.9275H92.4612V59.2694H95V50.9275Z" fill="black"/>
<path d="M33.342 53.829H25V56.7306H33.342V53.829Z" fill="black"/>
<path d="M41.684 53.829H38.7825V59.2694H41.684V53.829Z" fill="black"/>
<path d="M50.0259 53.829H47.4871V62.171H50.0259V53.829Z" fill="black"/>
<path d="M55.829 53.829H52.9275V56.7306H55.829V53.829Z" fill="black"/>
<path d="M75.4145 53.829H72.5129V56.7306H75.4145V53.829Z" fill="black"/>
<path d="M95.0001 53.829H83.7566V56.7306H95.0001V53.829Z" fill="black"/>
<path d="M30.4404 56.7306H25V59.2694H30.4404V56.7306Z" fill="black"/>
<path d="M50.0258 56.7306H36.2434V59.2694H50.0258V56.7306Z" fill="black"/>
<path d="M61.2695 56.7306H55.8291V59.2694H61.2695V56.7306Z" fill="black"/>
<path d="M67.0724 56.7306H64.1709V59.2694H67.0724V56.7306Z" fill="black"/>
<path d="M72.513 56.7306H69.9741V59.2694H72.513V56.7306Z" fill="black"/>
<path d="M81.2177 56.7306H75.4146V59.2694H81.2177V56.7306Z" fill="black"/>
<path d="M27.5389 59.2694H25V70.513H27.5389V59.2694Z" fill="black"/>
<path d="M33.342 59.2694H30.4404V62.171H33.342V59.2694Z" fill="black"/>
<path d="M38.7823 59.2694H36.2434V62.171H38.7823V59.2694Z" fill="black"/>
<path d="M52.9274 59.2694H44.5854V62.171H52.9274V59.2694Z" fill="black"/>
<path d="M69.9741 59.2694H67.0725V65.0725H69.9741V59.2694Z" fill="black"/>
<path d="M83.7564 59.2694H81.2175V81.7565H83.7564V59.2694Z" fill="black"/>
<path d="M92.4611 59.2694H89.5596V65.0725H92.4611V59.2694Z" fill="black"/>
<path d="M30.4404 62.171H27.5388V65.0725H30.4404V62.171Z" fill="black"/>
<path d="M44.5856 62.171H41.6841V65.0725H44.5856V62.171Z" fill="black"/>
<path d="M69.9741 62.171H50.0259V65.0725H69.9741V62.171Z" fill="black"/>
<path d="M78.316 62.171H72.5129V65.0725H78.316V62.171Z" fill="black"/>
<path d="M95.0001 62.171H83.7566V65.0725H95.0001V62.171Z" fill="black"/>
<path d="M36.2435 65.0725H30.4404V67.9741H36.2435V65.0725Z" fill="black"/>
<path d="M58.7305 65.0725H50.0259V67.9741H58.7305V65.0725Z" fill="black"/>
<path d="M72.513 65.0725H69.9741V87.5596H72.513V65.0725Z" fill="black"/>
<path d="M83.7566 65.0725H78.3162V70.513H83.7566V65.0725Z" fill="black"/>
<path d="M89.5595 65.0725H86.658V70.513H89.5595V65.0725Z" fill="black"/>
<path d="M95 65.0725H92.4612V67.9741H95V65.0725Z" fill="black"/>
<path d="M38.7823 67.9741H36.2434V70.5129H38.7823V67.9741Z" fill="black"/>
<path d="M44.5856 67.9741H41.6841V70.5129H44.5856V67.9741Z" fill="black"/>
<path d="M55.829 67.9741H50.0259V76.3161H55.829V67.9741Z" fill="black"/>
<path d="M64.1711 67.9741H61.2695V70.5129H64.1711V67.9741Z" fill="black"/>
<path d="M83.7565 67.9741H72.5129V70.5129H83.7565V67.9741Z" fill="black"/>
<path d="M92.4611 67.9741H89.5596V73.4145H92.4611V67.9741Z" fill="black"/>
<path d="M61.2694 70.5129H47.4871V73.4145H61.2694V70.5129Z" fill="black"/>
<path d="M72.5129 70.5129H64.1709V73.4145H72.5129V70.5129Z" fill="black"/>
<path d="M44.5855 73.4145H25V76.3161H44.5855V73.4145Z" fill="black"/>
<path d="M58.7306 73.4145H47.4871V76.3161H58.7306V73.4145Z" fill="black"/>
<path d="M67.0726 73.4145H61.2695V76.3161H67.0726V73.4145Z" fill="black"/>
<path d="M78.3161 73.4145H75.4146V76.3161H78.3161V73.4145Z" fill="black"/>
<path d="M86.6582 73.4145H83.7566V76.3161H86.6582V73.4145Z" fill="black"/>
<path d="M95 73.4145H92.4612V76.3161H95V73.4145Z" fill="black"/>
<path d="M27.5389 76.3161H25V93H27.5389V76.3161Z" fill="black"/>
<path d="M44.5856 76.3161H41.6841V93H44.5856V76.3161Z" fill="black"/>
<path d="M50.0259 76.3161H47.4871V84.658H50.0259V76.3161Z" fill="black"/>
<path d="M64.1709 76.3161H58.7305V79.2176H64.1709V76.3161Z" fill="black"/>
<path d="M72.5129 76.3161H67.0725V81.7565H72.5129V76.3161Z" fill="black"/>
<path d="M92.4611 76.3161H89.5596V90.4611H92.4611V76.3161Z" fill="black"/>
<path d="M38.7824 79.2176H30.4404V87.5596H38.7824V79.2176Z" fill="black"/>
<path d="M55.829 79.2176H50.0259V81.7565H55.829V79.2176Z" fill="black"/>
<path d="M61.2693 79.2176H58.7305V81.7565H61.2693V79.2176Z" fill="black"/>
<path d="M86.6579 79.2176H64.1709V81.7565H86.6579V79.2176Z" fill="black"/>
<path d="M95 79.2176H92.4612V93H95V79.2176Z" fill="black"/>
<path d="M78.3161 81.7565H75.4146V84.658H78.3161V81.7565Z" fill="black"/>
<path d="M86.6582 81.7565H83.7566V84.658H86.6582V81.7565Z" fill="black"/>
<path d="M55.829 84.658H52.9275V87.5596H55.829V84.658Z" fill="black"/>
<path d="M67.0724 84.658H58.7305V87.5596H67.0724V84.658Z" fill="black"/>
<path d="M75.4145 84.658H72.5129V87.5596H75.4145V84.658Z" fill="black"/>
<path d="M83.7566 84.658H78.3162V90.4611H83.7566V84.658Z" fill="black"/>
<path d="M94.9999 84.658H86.658V90.4611H94.9999V84.658Z" fill="black"/>
<path d="M52.9274 87.5596H50.0259V90.4611H52.9274V87.5596Z" fill="black"/>
<path d="M44.5855 90.4612H27.5388V93H44.5855V90.4612Z" fill="black"/>
<path d="M50.0259 90.4612H47.4871V93H50.0259V90.4612Z" fill="black"/>
<path d="M67.0724 90.4612H58.7305V93H67.0724V90.4612Z" fill="black"/>
<path d="M75.4145 90.4612H69.9741V93H75.4145V90.4612Z" fill="black"/>
<path d="M86.6582 90.4612H83.7566V93H86.6582V90.4612Z" fill="black"/>
</g>
<defs>
<clipPath id="clip0">
<rect width="70" height="70" fill="white" transform="translate(25 23)"/>
</clipPath>
</defs>
</svg>
