<svg width="102" height="60" fill="none" xmlns="http://www.w3.org/2000/svg"><path d="M16.429 27.653c1.908-2.192-.267-2.766.185-3.77.964-.634 2.38 1.394 3.405-.491.165-.307.472-.82.924-.635.554.205.307.778.246 1.167-.287 1.414.677 1.824 1.867 2.008.82.062.882.902.061 1.004-3.262.574-1.559 2.807-2.564 3.237-.287.041-.472-.143-.534-.369-.45-1.68-1.559-1.823-2.974-1.31-.698.245-1.273-.226-.616-.84Zm3.693.717c.062-1.209.636-1.7 1.682-1.823-.964-.369-1.702-.84-1.456-2.09-.657.82-1.375.902-2.38.287.554 1.086.595 1.926-.328 2.827 1.066-.143 2.215-1.086 2.482.8ZM78.677 39.392c.287-1.885 2.934-1.024 4.042-.307 1.58 1.25 1.395-1.209 1.56-2.192.02-1.27 1.19-1.127.964.061.061 1.783-1.396 3.094-.739 4.835.43 1.332-1.334 3.135-2.729 2.213.8-.738 2.34-1.311 1.703-2.582-.226-.491-.636-.389-1.067-.286-1.313.245-4.062.245-3.734-1.742Zm1.313.615c.739.246 1.498.225 2.483.205-.739-.37-2.442-1.394-2.852-.82-.144.328.103.512.37.615Z" fill="#FCC31E"/><path d="M73.794 14.112c6.607-7.13 21.195-8.687 26.775-2.97 1.908 3.318-2.831 3.462-5.047 3.072 3.242 5-2.81 5.675-6.422 4.692.985 2.212.103 4.364-2.564 3.913-.719.082-3.16-1.004-3.304-.205-1.785 3.995-3.898.287-5.416 1.905-.657 1.045-4.288 1.127-3.857-.41.205-.47.595-.41.964-.245.636.286 1.436.41 1.826-.103 1.128-1.454 2.257-1.557 3.672-.471.76.492 1.847-.512 1.54-1.352-1.109-3.278 7.14 2.172 6.134-1.946-.082-.779-1.026-1.455-.718-2.254.615-.717 2.093.123 2.934.082 1.785.39 6.175.45 4.513-2.458-.369-1.025-2.277-1.373-1.949-2.52.247-.533.677-.287 1.067-.164 1.108.573 7.489 1.086 5.109-1.332-6.668-4.773-19.943-2.151-24.949 4.261-.554.472-.944 1.906-1.846 1.373-.37-.225-.308-.574-.082-.88.533-.657 1.046-1.353 1.62-1.988ZM11.3 1.512c8.863-1.68 19.429.697 24.312 8.871.636.779-.574 1.598-1.026.697-4.329-7.253-13.459-9.732-21.44-8.687-1.498.184-2.955.574-4.124 1.64-2.216 2.17 3.919 2.048 5.006 1.597.41-.102.903-.369 1.19.184.267.554-.205.779-.554 1.045-5.396 4.487 1.56 4.507 4.945 3.893 2.77.082-3.016 4.179 1.395 4.261 1.026.307 5.293-1.639 4.616.41-.738 1.844 1.436 2.048 2.524 1.126.677-.389 1.23-.286 1.662.41.636 1.025 1.477 1.496 2.667 1.045.451-.164.739-.04.882.39.103 1.597-3.55 1.126-4.083-.083-.472-.635-.78-.573-1.395-.266-1.251.656-3.16.041-3.529-1.27-.328-1.496-1.477-.656-2.462-.656-2.954.656-4.657-.778-3.324-3.974-3.262.737-9.355-.226-6.319-4.692.103-.307-.143-.286-.328-.307-6.135.164-6.217-4.24-.616-5.634ZM12.838 58.363a260.095 260.095 0 0 0 18.014-14.484c.328-.287.698-.697 1.129-.226.451.533-.123.779-.431 1.045a249.69 249.69 0 0 1-13.747 11.288c-1.518 1.168-3.057 2.274-4.575 3.422-.472.348-.8.307-.964-.287-.02-.41.308-.574.574-.758ZM26.4 40.786c-.841.389-2.36 2.765-3.077 1.229 2.42-2.336 5.273-4.261 7.858-6.433.348-.287.718-.471 1.046-.02.328.47-.123.655-.41.88-1.785 1.455-3.611 2.89-5.417 4.344ZM26.728 56.54c2.073-1.865 4.186-3.729 6.545-5.225.698.164.616.963.062 1.23a72.96 72.96 0 0 0-5.868 4.794c-.78.942-1.826-.144-.739-.8ZM2.56 23.065c1.702-.02 1.435 2.396-.083 2.601-2.031-.184-1.95-2.356.082-2.601Zm-.104 1.434c.185-.02.35-.062.329-.287-.041-.615-1.088.348-.329.287ZM98.538 29.005c1.724-.102 1.457 2.397-.02 2.581-2.032-.102-2.052-2.294.02-2.581Zm.246 1.209c.041-.471-.554-.205-.615.123.246.164.472.184.615-.123ZM8.755 38.081c1.457-.246 2.586 2.663.636 2.581-1.764.205-2.318-2.253-.636-2.58Zm.595 1.7c.041-.47-.143-.675-.45-.778-.473.287.04.697.45.779Z" fill="#fff"/><path d="m33.793 44.527-.003.019-.001.02c-.061.88.17 1.724.748 2.36.575.63 1.433.992 2.505 1.029l24.984 3.51c.543.141 1.256.003 1.855-.332.64-.358 1.239-.987 1.437-1.917l.004-.019.003-.02 5.097-36.265c.022-.159-.033-.284-.036-.293a.775.775 0 0 0-.044-.092 1.737 1.737 0 0 0-.08-.128 7.745 7.745 0 0 0-.228-.315c-.188-.25-.456-.59-.777-.988a165.94 165.94 0 0 0-2.376-2.871 130.775 130.775 0 0 0-2.464-2.846c-.35-.388-.656-.72-.891-.957a5.713 5.713 0 0 0-.313-.297 1.607 1.607 0 0 0-.143-.112l-.003-.001a.692.692 0 0 0-.287-.116l-18.855-2.65c-1.375-.308-2.436-.067-3.187.476a3.01 3.01 0 0 0-1.209 1.987l-5.736 40.818Z" fill="#F5F5F5" stroke="#fff" stroke-width="1.099" stroke-miterlimit="3.864"/><path d="m50.518 9.817 15.132 20.08-1.229.926-15.131-20.08 1.228-.926ZM69.341 16.654 59.834 4.037l2.87.404c.426.06 7.204 8.18 7.174 8.395l-.537 3.818ZM66.404 37.55l-1.02 7.256-9.432-1.326 1.02-7.255 9.432 1.325Z" fill="#000"/><path d="m68.145 25.162-3.364 23.94c-.318 1.493-1.914 2.037-2.643 1.825l-1.287-.18 3.667-26.095 3.627.51ZM49.486 49.148l-12.397-1.742c-.697-.02-1.261-.189-1.694-.469l7.925-5.971 6.166 8.182ZM68.19 24.842 51.646 2.886l3.191.448L68.64 21.65l-.449 3.192Z" fill="#000"/><path opacity=".8" d="m37.637 42.696 3.865-27.5c.102-.725.835-1.732 2.556-1.342l16.834 2.366c.29.04 4.852 6.01 4.832 6.154l-3.365 23.944c-.215 1.006-1.303 1.37-1.8 1.227l-21.042-2.957c-1.327-.039-1.95-.866-1.88-1.892Z" stroke="#666" stroke-width=".147" stroke-miterlimit="3.864"/><path opacity=".8" clip-rule="evenodd" d="m54.398 44.533-14.585-2.05c-.072-.01-1.596-.224-1.413-2.048l1.825-12.988.438-3.12.816-5.804c.01-.073.09-1.171 1.613-1.475l12.698 1.784s.435.061.695.32l2.599 3.62s.104.311.083.456l-.601 4.281-.337 2.395-1.804 12.842-.01.073c-.052.363-.39 1.721-1.872 1.735l-.145-.02Z" stroke="#666" stroke-width=".147" stroke-miterlimit="10"/><g clip-path="url(#a)"><path d="M64.918 8.39 43.15 5.331l-.973 6.926 21.767 3.06.974-6.927Z" fill="#000"/><path d="M63.095 9.14c-.072-.017-.16-.041-.25-.054-.315-.044-.592-.024-.822.063-.331.133-.522.405-.578.803l-.01.074-1.006-.142.006-.047c.045-.316.258-.445.66-.388l.146.04.084-.597c-.072-.018-.147-.04-.262-.057-.316-.044-.575-.02-.805.066-.336.132-.525.392-.581.794l-.323 2.298-.512-.072c-.085-.012-.123-.057-.111-.139l.146-1.041c.105-.746-.278-1.177-1.165-1.302a1.975 1.975 0 0 0-.693.01c-.302.045-.478.187-.51.41l-.04.292.703.1.02-.149c.01-.063.065-.114.179-.122a.623.623 0 0 1 .253-.004c.2.028.34.087.418.182.078.094.095.252.068.443l-.003.023-.094-.013c-.431-.06-.809-.066-1.121-.006-.5.089-.768.322-.82.696-.039.273.03.502.22.688.172.175.409.284.703.325.286.04.532-.008.746-.142a.921.921 0 0 0 .24-.224l.017.002-.025.12a.293.293 0 0 0 .058.235c.063.076.154.117.286.135l1.718.242.315-2.236 1.006.142-.314 2.235.75.106.315-2.236.674.095.078-.558-.674-.095.007-.047c.044-.316.262-.444.659-.389l.16.043.084-.601Zm-5.166 1.94.137.02-.01.074a.679.679 0 0 1-.264.453.634.634 0 0 1-.525.176c-.154-.021-.264-.072-.336-.15a.373.373 0 0 1-.08-.27c.034-.298.396-.398 1.078-.302ZM55.184 9.414l-.011.078-.009-.001a.679.679 0 0 0-.18-.229c-.173-.167-.406-.268-.705-.31-.426-.06-.779.034-1.068.268-.266.217-.428.537-.483.93-.057.403.021.744.219 1.042.207.316.538.502.956.56.38.054.678-.028.907-.234h.004l-.044.285c-.033.234-.138.394-.33.494-.168.08-.367.104-.623.068a2.015 2.015 0 0 1-.592-.187l-.23-.127-.312.52c.316.2.657.34 1.054.396.447.062.829.009 1.15-.145.37-.183.588-.495.65-.943l.27-1.916c.011-.078.059-.107.144-.095l.239.033.084-.597-.717-.1a.365.365 0 0 0-.259.047.224.224 0 0 0-.114.163Zm-1.419.286c.152-.122.336-.16.553-.13.508.072.73.378.654.916-.04.285-.143.493-.308.613a.717.717 0 0 1-.523.106.712.712 0 0 1-.532-.33c-.111-.17-.146-.386-.111-.632.034-.246.129-.423.267-.543ZM52.734 9.364l.077-.546-.657-.093.007-.046c.044-.316.254-.446.655-.39l.152.03.084-.597a2.468 2.468 0 0 0-.25-.044c-.316-.044-.588-.026-.817.057-.332.128-.53.395-.587.8l-.012.083-1.006-.142.007-.047c.044-.316.258-.445.659-.389l.16.031.085-.597a2.657 2.657 0 0 0-.264-.045c-.32-.045-.575-.025-.808.058-.34.13-.534.398-.59.8l-.322 2.286-.559-.078c-.09-.013-.123-.053-.111-.135l.24-1.717c.019-.129-.002-.227-.065-.304-.053-.059-.146-.104-.279-.122l-1.407-.198a.397.397 0 0 0-.267.046.236.236 0 0 0-.098.165c-.013.03-.015.046-.008.063l-.013-.002a.914.914 0 0 0-.177-.228c-.178-.152-.408-.252-.707-.294-.43-.06-.787.032-1.072.267-.266.217-.413.527-.486.922-.044.404.028.756.23 1.051.217.317.526.5.952.56.376.053.678-.028.899-.236h.004l-.039.278c-.034.242-.135.402-.327.503-.168.08-.375.098-.63.062a2.029 2.029 0 0 1-.593-.182l-.23-.128-.308.522c.312.198.661.34 1.054.394.439.062.82.008 1.142-.145.365-.184.588-.503.651-.951l.27-1.924c.01-.066.058-.096.143-.084l.44.062c.089.013.122.053.111.131l-.24 1.71c-.018.132-.001.226.055.293.046.075.144.116.29.137l1.807.254.316-2.244 1.015.143-.316 2.244.768.107.315-2.243.657.092Zm-7.396-.848a.715.715 0 0 1 .572-.139c.508.071.72.38.646.915-.04.288-.146.508-.319.627-.139.092-.305.128-.523.098a.725.725 0 0 1-.524-.32.913.913 0 0 1-.124-.635c.04-.249.13-.427.272-.546Z" fill="#fff"/><path d="m49.087 7.152-.763-.107-.098.698.763.108.098-.699Z" fill="#fff"/></g><rect x="39.168" y="41.024" width="20.882" height="16.486" rx="1.282" transform="rotate(-82 39.168 41.024)" fill="url(#b)" stroke="#000" stroke-width=".366"/><path fill-rule="evenodd" clip-rule="evenodd" d="M40.816 34.32c-.222.144-.505.205-.912.148l.05-.363c.345.049.533-.008.663-.093.115-.074.196-.173.3-.301l.093-.111c.149-.176.336-.364.646-.482.306-.115.713-.153 1.29-.072.576.08.938.226 1.176.424.242.2.333.438.401.639l.016.047c.062.183.108.317.219.432.115.12.325.238.772.3l5.538.78c.344.047.532-.01.662-.094.115-.074.196-.173.301-.301l.092-.111c.15-.176.336-.365.646-.482.307-.115.713-.153 1.29-.072.576.08.939.226 1.177.424.241.2.332.438.4.639l.017.047c.062.183.107.317.218.432.116.12.326.238.772.3l-.051.363c-.489-.068-.79-.207-.984-.408-.172-.178-.243-.39-.3-.563l-.018-.053c-.064-.188-.129-.342-.289-.475-.164-.137-.45-.267-.993-.343-.54-.077-.88-.034-1.11.052-.225.085-.364.22-.495.376l-.071.086c-.109.133-.235.288-.403.397a1.032 1.032 0 0 1-.407.153l-.952 6.776-.363-.05.944-6.716a2.293 2.293 0 0 1-.134-.015l-5.308-.746-.944 6.712-.362-.052.943-6.714c-.412-.074-.675-.205-.852-.387-.171-.178-.242-.39-.3-.563l-.017-.053c-.065-.188-.129-.342-.289-.475-.164-.137-.45-.267-.993-.343-.541-.076-.88-.034-1.11.052-.225.085-.364.22-.495.376l-.071.086c-.109.133-.235.288-.403.397Zm5.912-6.292.96-6.832-.363-.051-.985 7.014-.026.18 5.672.798c.344.048.509.155.61.272.09.103.142.22.207.372l.058.133c.095.21.223.443.489.64.262.196.642.345 1.22.426.575.08.964.04 1.247-.084.288-.126.44-.33.562-.503l.028-.041c.11-.16.19-.275.329-.355.144-.084.379-.14.825-.076l.05-.363c-.488-.069-.816-.019-1.058.121-.214.124-.34.308-.443.458l-.032.047c-.114.163-.218.293-.409.377-.195.086-.506.132-1.048.056-.542-.076-.856-.21-1.053-.356-.193-.144-.29-.313-.373-.498a5.43 5.43 0 0 1-.044-.102c-.068-.158-.147-.342-.278-.493a1.03 1.03 0 0 0-.35-.26l.97-6.897-.363-.05-.96 6.836a2.301 2.301 0 0 0-.133-.023l-5.309-.746Zm-5.804-.816c.407.058.662.195.836.394.131.151.21.335.277.493l.045.102c.083.186.18.354.373.498.197.146.51.28 1.052.356.73.103 1.043-.016 1.221-.16.096-.077.166-.171.244-.284l.023-.034c.07-.1.15-.217.255-.317l.252.266a1.604 1.604 0 0 0-.206.26l-.023.034c-.08.115-.175.247-.315.36-.29.235-.724.347-1.502.238-.577-.081-.957-.23-1.22-.425a1.528 1.528 0 0 1-.488-.641l-.058-.132c-.066-.152-.116-.27-.206-.373-.102-.117-.267-.224-.611-.272l.05-.363Z" fill="#000"/><defs><linearGradient id="b" x1="61.489" y1="55.727" x2="39.141" y2="46.201" gradientUnits="userSpaceOnUse"><stop offset=".244" stop-color="#FEEAA7"/><stop offset="1" stop-color="#B2996E"/></linearGradient><clipPath id="a"><path fill="#fff" transform="rotate(8 -16.544 311.205)" d="M0 0h21.981v6.994H0z"/></clipPath></defs></svg>